<svg xmlns="http://www.w3.org/2000/svg" viewBox="0 0 64 64">
  <defs>
    <linearGradient id="background" x1="8" y1="6" x2="56" y2="58" gradientUnits="userSpaceOnUse">
      <stop stop-color="#FB7185"/>
      <stop offset="1" stop-color="#B91C1C"/>
    </linearGradient>
  </defs>
  <circle cx="32" cy="32" r="30" fill="url(#background)"/>
  <g transform="translate(11 11) scale(1.75)" fill="#FFFFFF">
    <g opacity=".52">
      <path d="M14 21h-4c-3.771 0-5.657 0-6.828-1.172C2 18.657 2 16.771 2 13v-.25h20V13c0 3.771 0 5.657-1.172 6.828C19.657 21 17.771 21 14 21Z"/>
      <path d="M10 3h4c3.771 0 5.657 0 6.828 1.172C22 5.343 22 7.229 22 11v.25H2V11c0-3.771 0-5.657 1.172-6.828C4.343 3 6.229 3 10 3Z"/>
    </g>
    <path d="M2 11.25h20v1.5H2zM12.75 16.5a.75.75 0 0 1 .75-.75H18a.75.75 0 0 1 0 1.5h-4.5a.75.75 0 0 1-.75-.75Zm0-9a.75.75 0 0 1 .75-.75H18a.75.75 0 0 1 0 1.5h-4.5a.75.75 0 0 1-.75-.75ZM6 18.25a.75.75 0 0 1-.75-.75v-2a.75.75 0 0 1 1.5 0v2a.75.75 0 0 1-.75.75Zm0-9a.75.75 0 0 1-.75-.75v-2a.75.75 0 0 1 1.5 0v2a.75.75 0 0 1-.75.75Zm3 9a.75.75 0 0 1-.75-.75v-2a.75.75 0 0 1 1.5 0v2a.75.75 0 0 1-.75.75Zm0-9a.75.75 0 0 1-.75-.75v-2a.75.75 0 0 1 1.5 0v2A.75.75 0 0 1 9 9.25Z"/>
  </g>
</svg>
